<?xml version="1.0" standalone="no"?>
<!DOCTYPE svg PUBLIC "-//W3C//DTD SVG 20010904//EN"
 "http://www.w3.org/TR/2001/REC-SVG-20010904/DTD/svg10.dtd">
<svg version="1.0" xmlns="http://www.w3.org/2000/svg"
 width="1500.000000pt" height="1500.000000pt" viewBox="0 0 1500.000000 1500.000000"
 preserveAspectRatio="xMidYMid meet">
<metadata>
Created by potrace 1.16, written by Peter Selinger 2001-2019
</metadata>
<g transform="translate(0.000000,1500.000000) scale(0.146056,-0.145349)"
fill="#000000" stroke="none">
<path d="M5740 10311 c0 -21 13 -41 26 -41 12 0 14 -36 14 -205 l0 -205 -40 0
c-38 0 -40 -2 -40 -29 0 -17 -4 -33 -10 -36 -5 -3 -10 -15 -10 -26 0 -13 -7
-19 -22 -20 -22 -1 -22 -1 2 -8 23 -6 25 -12 28 -74 2 -37 0 -67 -3 -67 -3 0
-23 11 -45 25 -197 124 -499 231 -761 269 -138 21 -399 21 -538 1 -540 -79
-1013 -377 -1316 -830 -115 -171 -190 -339 -267 -594 -13 -43 -13 -43 -108
-77 -589 -209 -1052 -720 -1203 -1329 -46 -182 -52 -240 -52 -470 0 -248 12
-338 72 -535 91 -302 241 -563 447 -777 l79 -83 -17 -94 c-62 -347 -31 -700
89 -1021 239 -639 784 -1092 1465 -1217 92 -17 157 -21 320 -22 215 -1 274 6
462 51 l107 26 93 -75 c602 -488 1402 -576 2083 -230 481 244 845 686 978
1187 l23 88 85 28 c248 84 506 248 713 451 48 49 97 88 107 88 12 0 19 7 19
20 0 11 7 23 15 26 8 4 15 15 15 25 0 14 7 19 30 19 20 0 30 -5 30 -15 0 -8
10 -16 23 -16 12 -1 4 -5 -18 -8 -33 -5 -40 -10 -41 -29 -1 -18 -1 -19 3 -2 6
26 23 26 23 1 0 -14 8 -21 28 -23 21 -2 28 -9 30 -29 3 -23 9 -28 44 -33 44
-7 68 5 68 35 0 14 7 19 30 19 19 0 30 -5 30 -14 0 -29 -13 -46 -35 -46 -13 0
-25 -7 -27 -17 -4 -16 1 -18 44 -15 l48 4 0 43 0 43 82 7 c51 5 83 4 85 -2 2
-6 15 -8 28 -5 22 4 24 1 27 -44 l3 -49 43 -3 c34 -3 48 1 61 17 20 22 46 27
56 11 3 -5 15 -10 25 -10 10 0 25 -8 32 -18 10 -15 26 -18 70 -18 31 1 60 4
64 9 17 17 26 5 9 -13 -20 -22 -45 -26 -63 -8 -8 8 -15 8 -24 1 -7 -6 -24 -13
-38 -16 -14 -2 14 -5 63 -6 81 -1 87 0 87 19 0 22 38 28 56 10 12 -12 130 -31
209 -33 45 -2 50 0 53 21 3 22 7 23 80 20 76 -3 77 -3 80 -31 3 -23 0 -27 -22
-27 -16 0 -26 -6 -26 -15 0 -8 8 -15 18 -15 23 0 42 -19 42 -42 0 -15 8 -18
44 -18 39 0 45 3 48 22 3 22 8 23 111 26 l107 3 0 3039 0 3040 -2265 0 c-1369
0 -2265 -4 -2265 -9z m-825 -781 c135 -29 255 -70 367 -126 89 -45 248 -144
248 -154 -1 -6 -128 -82 -950 -568 -349 -206 -647 -386 -662 -400 -60 -56 -57
-11 -59 -938 -1 -467 -5 -1000 -8 -1185 l-6 -336 -390 223 -390 222 -6 134
c-11 222 -10 1614 1 1736 24 272 107 510 257 737 85 127 281 326 408 412 204
137 445 231 680 262 117 16 395 6 510 -19z m928 -608 c-4 -41 -10 -52 -24 -52
-13 0 -19 -11 -25 -45 -5 -34 -11 -45 -24 -45 -10 0 -21 -7 -24 -16 -10 -26 5
-94 21 -94 7 0 18 -11 23 -24 5 -14 19 -26 32 -28 l23 -3 0 -270 -1 -270 -54
-31 c-30 -17 -287 -166 -570 -331 -283 -165 -625 -364 -760 -442 l-245 -141
-3 457 c-2 357 1 460 10 469 13 12 1479 851 1503 861 7 2 15 -5 18 -16 4 -15
13 -21 32 -21 26 0 27 2 22 40 -4 35 -3 40 22 48 14 5 27 8 28 8 1 -1 0 -26
-4 -54z m-3152 -1359 c1 -258 4 -687 8 -955 l6 -486 30 -44 c24 -34 61 -60
170 -124 77 -44 365 -211 640 -371 275 -160 631 -366 790 -458 160 -92 332
-192 383 -222 l93 -55 -396 -229 c-218 -126 -398 -229 -400 -229 -4 0 -175 98
-435 248 -765 442 -1108 644 -1185 696 -51 34 -140 110 -205 176 -218 217
-353 464 -422 771 -20 91 -23 131 -23 314 0 167 4 228 19 295 89 410 309 748
639 984 61 43 262 155 280 156 4 0 8 -210 8 -467z m3219 15 c-1 -57 -1 -127
-1 -155 l1 -53 48 -2 47 -2 -47 -3 -47 -4 -3 -48 -3 -49 -178 103 c-98 56
-179 106 -179 110 0 10 332 204 350 205 11 0 13 -23 12 -102z m-367 -530 c199
-116 364 -215 365 -220 2 -4 8 -8 14 -8 21 0 186 -101 193 -118 4 -9 10 -258
12 -552 l5 -535 -481 -278 -481 -279 -198 114 c-108 63 -322 186 -474 274
l-277 159 -3 510 c-1 281 -3 530 -4 554 -1 41 1 45 40 68 213 127 904 522 914
523 7 0 175 -95 375 -212z m985 -1630 c25 -3 27 -6 27 -50 0 -47 0 -47 33 -46
27 1 32 5 32 25 0 13 7 26 15 29 8 4 15 15 15 25 0 16 8 19 50 19 28 0 58 -4
68 -9 9 -5 25 -12 35 -15 22 -7 24 -61 2 -70 -11 -4 -15 -20 -15 -56 l0 -50
-62 -2 -63 -1 55 -6 c30 -4 61 -2 68 3 6 4 12 28 12 52 0 43 1 44 34 44 25 0
35 -5 39 -20 3 -14 14 -20 31 -20 26 0 26 0 26 -86 l0 -86 108 3 107 4 -2 -30
c-1 -16 1 -51 3 -76 5 -44 8 -47 37 -52 19 -3 38 1 48 9 8 8 20 14 26 14 6 0
14 6 16 13 3 7 6 5 6 -6 1 -10 -10 -22 -24 -27 -14 -5 -30 -21 -35 -34 -5 -13
-14 -27 -19 -31 -6 -3 -11 -15 -11 -26 0 -12 -7 -19 -20 -19 -11 0 -20 -4 -20
-10 0 -14 33 -13 48 2 7 7 12 20 12 30 0 10 5 18 10 18 6 0 10 11 10 25 0 20
5 25 26 25 l26 0 -4 -402 c-4 -369 -6 -412 -27 -511 -85 -411 -321 -769 -657
-993 -513 -342 -1184 -347 -1699 -13 l-97 62 48 29 c27 16 384 226 794 467
409 241 762 453 783 472 68 60 66 41 68 779 1 366 4 651 6 633 3 -26 9 -32 31
-35z m-402 -1134 c-2 -6 -145 -92 -318 -192 -172 -99 -515 -298 -763 -442
-481 -279 -559 -320 -701 -369 -178 -61 -268 -74 -489 -75 -171 0 -215 3 -305
22 -633 137 -1113 633 -1226 1267 -17 96 -27 426 -13 440 6 6 394 -211 1159
-649 l475 -271 70 0 70 0 475 276 c261 152 594 344 740 427 146 82 391 222
545 311 l280 160 3 -447 c1 -246 0 -452 -2 -458z m1944 381 c0 -53 -1 -55 -27
-56 l-28 -2 27 -4 c32 -5 44 -31 23 -52 -10 -10 -15 -11 -15 -3 0 7 5 12 11
12 8 0 8 5 -1 15 -7 8 -21 15 -31 15 -11 0 -19 5 -19 12 0 6 -3 8 -6 5 -9 -8
16 -67 28 -67 19 0 -5 -21 -92 -80 -78 -52 -256 -150 -274 -150 -3 0 -6 81 -6
180 0 153 2 180 15 180 9 0 15 -9 15 -24 0 -18 6 -24 23 -24 12 -1 33 -2 47
-4 21 -2 26 2 28 25 3 24 7 27 40 27 20 0 48 3 62 6 21 6 23 4 13 -7 -7 -7
-13 -21 -13 -31 0 -10 -6 -18 -12 -18 -10 0 -10 -2 0 -8 9 -7 8 -14 -8 -32
-18 -21 -20 -21 -21 -4 0 11 -3 13 -6 7 -2 -7 -16 -13 -29 -13 -34 0 -22 -17
16 -22 18 -3 35 1 41 9 6 7 20 13 31 13 18 0 20 4 14 45 -7 41 -5 45 13 45 14
0 21 -6 21 -19 0 -27 12 -32 59 -25 l41 7 0 48 c0 27 5 49 10 49 6 0 10 -25
10 -55z"/>
<path d="M20 1345 l0 -1325 1920 0 1920 0 0 38 c-1 89 -19 225 -32 233 -7 5
-38 9 -69 9 -55 0 -57 1 -63 31 -3 17 -6 78 -6 135 l0 104 -45 0 -45 0 0 154
c0 145 -1 154 -20 159 -19 5 -20 15 -23 279 -2 202 -3 160 -5 -161 -1 -284 -5
-432 -12 -425 -5 5 -11 106 -12 239 l-3 230 -27 3 -28 3 0 -130 c0 -124 -1
-131 -20 -131 -19 0 -20 7 -20 125 0 102 3 127 15 131 21 8 19 56 -3 75 -17
15 -20 11 -46 -65 -70 -197 -63 -186 -105 -186 l-38 0 -97 283 c-67 195 -102
284 -112 284 -8 0 -14 -2 -14 -3 0 -9 -71 -493 -76 -517 l-6 -27 -99 0 c-82 0
-99 3 -99 15 0 9 34 223 75 476 41 253 75 464 75 469 0 6 -15 10 -34 10 -32 0
-34 2 -40 46 -3 26 -6 75 -6 110 l0 62 -105 0 -105 0 0 -103 0 -103 -29 -4
c-16 -2 -45 -2 -65 0 -35 4 -36 6 -37 46 0 22 -5 50 -10 61 -6 14 -8 1 -6 -43
l2 -63 -30 3 -30 3 -3 104 -3 104 33 -7 c23 -4 29 -3 18 4 -8 5 -23 10 -32 10
-15 0 -18 9 -18 54 0 29 -3 74 -6 100 -6 40 -10 46 -30 46 -23 0 -24 -3 -26
-72 -1 -47 -3 -58 -5 -31 -2 23 -11 47 -19 53 -10 9 -14 34 -14 86 0 59 -3 74
-15 74 -12 0 -15 -18 -15 -99 0 -97 0 -99 25 -105 18 -5 25 -13 25 -31 0 -13
5 -27 10 -30 6 -3 10 -16 10 -28 0 -20 -4 -22 -50 -19 l-50 4 0 104 0 104 -30
0 -30 0 0 99 c0 59 -4 102 -11 106 -5 4 -21 4 -35 1 -23 -6 -24 -9 -24 -101
l0 -95 -40 0 -39 0 -3 72 c-3 72 -3 73 -33 78 -21 4 -31 11 -33 28 -3 18 -10
22 -43 22 -31 0 -39 -4 -39 -19 0 -10 7 -24 15 -31 11 -9 15 -31 13 -89 l-2
-76 -3 77 c-3 51 -9 80 -18 88 -8 7 -15 18 -15 25 0 7 -12 15 -27 18 -30 6
-252 12 -423 12 l-105 0 -3 -52 -3 -53 -50 0 -49 0 0 55 0 55 -49 0 c-31 0
-53 -5 -61 -15 -14 -17 -66 -20 -75 -5 -3 6 -17 10 -29 10 -13 0 -29 7 -36 15
-14 17 -66 20 -75 5 -3 -5 -40 -10 -81 -10 -67 0 -74 2 -74 20 0 11 -4 20 -10
20 -5 0 -10 -9 -10 -20 0 -17 -7 -20 -44 -20 -39 0 -45 3 -48 23 -3 21 -7 22
-121 25 -115 3 -118 3 -127 27 -9 23 -15 25 -69 25 -54 0 -60 2 -63 23 -3 21
-8 22 -110 25 l-108 3 0 -1326z"/>
</g>
</svg>
