<?xml version="1.0" standalone="no"?>
<!DOCTYPE svg PUBLIC "-//W3C//DTD SVG 20010904//EN"
 "http://www.w3.org/TR/2001/REC-SVG-20010904/DTD/svg10.dtd">
<svg version="1.0" xmlns="http://www.w3.org/2000/svg"
 width="1500.000000pt" height="1500.000000pt" viewBox="0 0 1500.000000 1500.000000"
 preserveAspectRatio="xMidYMid meet">
<metadata>
Created by potrace 1.16, written by Peter Selinger 2001-2019
</metadata>
<g transform="translate(0.000000,1500.000000) scale(0.147348,-0.145490)"
fill="#000000" stroke="none">
<path d="M6277 10304 c-3 -3 -3 -12 -1 -19 3 -7 -4 -16 -15 -20 -19 -6 -21
-14 -21 -100 0 -65 4 -95 13 -99 6 -4 2 -4 -11 -2 l-23 4 3 -116 c3 -111 4
-117 23 -114 14 2 16 0 7 -6 -10 -6 -15 -56 -19 -183 -3 -96 -9 -178 -14 -183
-5 -5 -30 -13 -56 -17 -97 -15 -128 -21 -148 -29 -75 -31 -87 -32 -119 -2
-244 226 -607 397 -986 464 -101 18 -499 18 -600 0 -625 -110 -1137 -491
-1411 -1047 -49 -100 -82 -188 -147 -393 -5 -19 -29 -32 -112 -63 -555 -208
-974 -645 -1159 -1209 -71 -217 -96 -402 -88 -654 9 -284 64 -509 187 -765 94
-193 244 -407 378 -535 23 -22 39 -42 37 -46 -10 -16 -37 -205 -45 -316 -23
-323 44 -656 191 -960 100 -205 204 -351 373 -520 294 -293 671 -476 1099
-534 101 -13 368 -13 477 0 79 10 276 51 310 64 9 4 46 -20 100 -65 175 -146
414 -281 620 -349 472 -157 979 -128 1418 80 505 240 865 657 1025 1189 l35
114 91 33 c374 135 695 383 936 724 36 51 135 216 135 226 0 2 18 41 39 86 22
46 50 115 63 153 13 39 26 72 30 73 5 2 8 13 8 23 0 12 4 17 11 14 6 -4 5 3
-3 15 -10 18 -10 24 0 27 7 3 12 21 12 43 0 21 5 40 11 42 5 2 10 22 11 46 l0
42 44 0 c77 0 67 39 -11 41 -22 0 -34 3 -27 6 6 2 12 13 12 24 0 16 7 19 41
19 22 0 38 -4 34 -9 -3 -6 6 -7 22 -2 l28 8 0 -98 c0 -53 2 -99 5 -102 3 -3
33 -7 67 -9 60 -4 62 -4 57 18 -5 18 -1 23 18 26 15 2 24 11 26 26 4 23 16 29
27 12 3 -5 17 -10 31 -10 14 0 24 -6 24 -14 0 -8 3 -21 6 -30 4 -11 -4 -16
-38 -19 -23 -2 41 -4 144 -5 200 -2 188 1 178 -47 -1 -5 -2 -20 -1 -33 1 -23
1 -23 31 -5 36 21 39 42 5 39 -13 -2 -22 1 -19 6 3 5 12 7 20 4 7 -3 17 0 21
7 5 7 15 17 23 24 14 10 15 7 12 -22 -3 -21 0 -35 7 -35 7 0 8 -8 2 -24 -9
-21 -7 -23 20 -24 23 0 29 4 30 21 1 17 2 18 6 5 2 -10 9 -18 14 -18 6 0 8 -4
5 -8 -3 -5 1 -9 9 -9 8 0 12 4 9 8 -8 13 17 15 80 8 35 -5 65 -4 71 2 11 11
65 12 83 1 18 -12 -20 -45 -42 -36 -9 3 -16 1 -16 -5 0 -18 44 -13 66 7 11 11
38 21 61 24 41 6 42 5 46 -26 2 -17 4 -4 4 29 0 72 -2 78 -27 62 -16 -9 -24
-9 -40 0 -16 11 -18 10 -14 -2 4 -8 -1 -18 -10 -21 -9 -3 -13 -10 -10 -15 3
-5 0 -9 -5 -9 -6 0 -11 4 -11 9 0 6 -24 11 -52 13 -48 3 -53 5 -52 26 0 12 -4
22 -10 22 -6 0 -4 5 4 10 8 5 63 10 123 10 l107 0 0 2505 0 2505 -1948 0
c-1072 0 -1952 -3 -1955 -6z m-1366 -783 c128 -28 235 -63 345 -115 102 -48
275 -156 271 -169 -1 -5 -362 -221 -802 -481 -752 -444 -802 -475 -832 -520
l-33 -48 0 -1189 c0 -738 -4 -1189 -9 -1189 -10 0 -694 391 -763 436 l-38 24
0 873 c0 501 4 920 10 985 34 381 179 693 449 963 263 263 526 390 936 453 75
11 372 -3 466 -23z m1520 -457 c8 -8 23 -14 32 -14 12 0 17 -9 17 -30 0 -31
-19 -43 -21 -12 0 10 -5 5 -12 -13 -11 -28 -15 -30 -59 -27 l-47 3 1 -98 0
-98 36 -5 c36 -5 37 -7 40 -49 3 -45 13 -61 47 -76 18 -7 18 -9 3 -12 -15 -4
-18 -16 -18 -79 0 -67 2 -74 20 -74 26 0 29 -49 3 -51 -16 -1 -16 -2 -2 -6 10
-2 19 -13 22 -24 3 -11 14 -19 27 -19 19 0 21 -5 19 -40 -2 -21 0 -42 4 -46
10 -10 9 -52 -2 -58 -10 -6 -61 16 -61 27 0 4 -9 7 -20 7 -11 0 -20 5 -20 10
0 6 -9 10 -20 10 -11 0 -20 4 -20 9 0 5 -31 9 -70 10 -41 0 -70 -3 -70 -9 0
-6 -4 -10 -9 -10 -5 0 -62 -31 -128 -68 -65 -38 -248 -144 -408 -236 -159 -93
-373 -216 -475 -276 -551 -320 -1019 -590 -1024 -590 -3 0 -6 206 -6 459 l0
459 223 128 c122 70 449 259 727 418 557 321 680 386 820 433 111 38 137 44
208 50 28 3 52 10 52 15 0 16 171 0 191 -18z m-3729 -2690 l3 -261 30 -47 c34
-53 -82 16 1240 -749 352 -203 684 -395 737 -426 83 -48 95 -58 80 -68 -105
-65 -768 -443 -778 -443 -17 0 -1518 868 -1611 932 -321 221 -547 559 -634
951 -32 144 -37 416 -11 572 84 493 395 915 837 1139 l90 46 7 -693 c4 -380 8
-809 10 -953z m3653 1524 c14 -6 25 -15 25 -20 0 -4 7 -8 16 -8 9 0 24 -8 33
-17 9 -10 23 -19 31 -21 8 -2 17 -8 18 -13 2 -5 11 -9 21 -9 9 0 23 -9 31 -20
8 -11 22 -20 32 -20 10 0 18 -4 18 -10 0 -5 7 -10 15 -10 9 0 15 -6 14 -12 -3
-27 2 -38 17 -38 8 0 13 4 9 9 -13 23 15 18 39 -6 22 -21 26 -35 26 -80 l0
-54 38 3 c32 3 37 0 40 -19 2 -14 10 -23 21 -23 15 0 17 -7 13 -55 -3 -31 0
-61 6 -68 6 -7 11 -51 11 -97 0 -115 -1 -110 16 -110 12 0 15 16 17 78 1 54 3
63 5 30 4 -43 7 -48 29 -48 19 0 24 -5 24 -25 0 -14 -6 -25 -12 -26 -7 0 1 -7
17 -14 19 -9 24 -14 13 -15 -14 0 -18 -9 -18 -37 0 -38 14 -36 23 2 4 16 5 15
6 -6 0 -14 -10 -38 -23 -54 -20 -24 -22 -30 -11 -42 8 -7 24 -13 37 -13 21 0
23 -3 20 -52 -2 -42 0 -49 8 -35 6 9 20 17 30 17 18 0 20 -7 20 -70 l0 -70 30
0 c17 0 30 -3 30 -7 0 -5 1 -61 3 -125 1 -65 -1 -118 -5 -118 -5 0 -8 5 -8 10
0 6 -9 10 -20 10 -11 0 -20 5 -20 10 0 6 -9 10 -20 10 -11 0 -20 5 -20 10 0 6
-6 10 -14 10 -8 0 -76 37 -152 81 -77 45 -155 91 -174 102 -19 10 -37 22 -40
26 -3 3 -10 7 -16 8 -6 1 -132 73 -280 159 -148 86 -382 222 -521 301 -139 79
-254 147 -257 151 -2 4 129 83 292 176 163 93 314 180 334 193 21 13 44 23 53
23 8 0 15 5 15 10 0 6 7 10 15 10 9 0 25 9 37 20 25 23 29 24 63 8z m-842
-847 c188 -109 403 -234 477 -277 l135 -79 3 -547 2 -546 -212 -125 c-552
-323 -740 -429 -756 -424 -14 3 -739 419 -909 521 l-43 26 0 549 0 549 478
275 c262 152 479 276 480 277 2 0 158 -89 345 -199z m1943 -590 c-2 -20 2 -32
11 -36 8 -3 13 -11 10 -18 -2 -6 -1 -21 4 -32 7 -18 8 -18 8 -1 1 10 6 16 14
13 8 -3 13 4 12 22 0 22 4 26 30 26 l30 0 1 -75 c1 -41 0 -68 -3 -59 -3 11
-11 15 -24 12 -13 -4 -25 2 -35 16 -8 11 -24 21 -35 21 -11 0 -17 5 -14 10 4
6 -5 10 -20 10 -22 0 -24 3 -15 19 7 13 7 22 0 26 -5 3 -10 -1 -10 -9 0 -19
-19 -20 -43 -2 -10 8 -16 23 -14 37 3 19 11 25 38 27 19 2 38 8 44 13 14 14
15 12 11 -20z m-862 -35 c134 -79 392 -228 549 -318 l137 -80 0 -916 c0 -731
-3 -938 -14 -1023 -79 -588 -482 -1079 -1038 -1263 -393 -131 -808 -104 -1173
75 -111 55 -259 150 -247 160 4 3 205 122 447 264 798 469 1150 677 1169 694
10 9 26 32 36 51 16 33 18 116 23 1220 4 652 7 1186 7 1188 0 7 21 -3 104 -52z
m1084 -311 c-4 -50 -2 -52 72 -57 27 -2 35 -8 40 -28 4 -19 13 -26 35 -28 32
-4 58 -20 50 -31 -2 -4 1 -8 8 -9 56 -4 113 -17 120 -26 4 -6 7 -24 6 -41 -3
-79 -1 -85 30 -85 26 0 30 -4 33 -32 3 -31 5 -33 48 -36 25 -1 60 -5 78 -8 30
-5 33 -8 30 -37 -3 -28 -8 -33 -38 -38 l-35 -6 33 -2 32 -1 0 -60 c0 -72 9
-78 97 -70 32 3 85 2 118 -3 33 -4 72 -5 88 -1 26 5 27 4 27 -31 0 -20 4 -34
8 -31 7 4 4 -24 -15 -132 -3 -18 -9 -35 -14 -38 -5 -3 -9 -18 -9 -34 0 -16 -4
-31 -9 -34 -5 -3 -12 -22 -16 -42 -11 -60 -140 -303 -212 -399 -136 -181 -309
-328 -506 -431 -60 -31 -111 -53 -115 -50 -8 9 -13 1550 -4 1684 5 86 4 116
-5 124 -7 6 -13 21 -13 34 0 18 6 24 21 24 19 0 21 -5 17 -45z m-1550 -1401
l-3 -457 -495 -286 c-272 -158 -612 -355 -755 -438 -313 -181 -391 -221 -524
-267 -534 -186 -1126 -59 -1553 333 -233 214 -416 552 -474 876 -18 101 -27
426 -12 440 7 8 319 -167 1143 -639 l490 -281 70 0 70 0 500 292 c620 361
1527 882 1538 883 4 0 6 -205 5 -456z"/>
<path d="M1104 2381 c-2 -2 -4 -26 -4 -52 l0 -48 -147 -3 c-192 -4 -216 -1
-210 23 7 26 -12 35 -28 13 -10 -14 -10 -21 -2 -26 7 -4 -6 -8 -28 -9 -22 -1
-60 -2 -85 -3 l-45 -1 -3 -42 c-2 -25 -8 -43 -15 -43 -7 -1 -1 -7 13 -15 23
-12 18 -14 -68 -17 l-92 -3 0 58 0 57 -75 0 c-74 0 -75 0 -75 -26 0 -23 -3
-25 -42 -22 -36 2 -44 7 -46 26 -3 16 -10 22 -28 22 -22 0 -24 4 -24 49 0 28
-4 53 -10 56 -6 4 -10 -5 -10 -20 0 -20 -6 -27 -30 -31 l-30 -6 0 -1160 0
-1159 1325 1 c1145 1 1325 3 1325 16 0 8 7 14 16 14 12 0 14 9 12 43 -2 32 -8
44 -25 52 -16 7 -23 18 -23 37 0 16 5 28 10 28 6 0 10 10 11 23 0 12 3 16 6
10 9 -25 21 -12 21 23 0 22 -6 38 -15 41 -8 3 -13 16 -11 32 3 23 0 26 -24 23
-21 -3 -27 1 -30 20 -2 18 -10 23 -33 25 -20 1 -23 0 -7 -4 12 -2 22 -8 22
-13 0 -5 2 -14 5 -22 4 -9 -4 -13 -25 -13 -25 0 -30 4 -30 23 0 35 18 62 41
62 12 0 23 8 26 19 3 11 11 22 19 25 18 7 18 36 0 36 -11 0 -16 24 -21 98 -3
53 -8 103 -11 110 -7 22 -49 10 -52 -16 -2 -12 -8 -22 -13 -22 -5 0 -9 -13 -9
-29 0 -30 14 -41 52 -41 12 0 19 -3 15 -6 -3 -4 -22 -3 -42 0 -27 5 -35 12
-35 29 0 14 -10 26 -27 35 -49 22 -54 18 -51 -50 l3 -63 53 -3 c31 -2 52 1 52
7 0 6 11 11 25 11 14 0 25 -4 25 -9 0 -5 -9 -7 -20 -4 -16 4 -20 0 -20 -21 0
-14 5 -26 10 -26 6 0 10 -7 10 -15 0 -8 -4 -15 -9 -15 -5 0 -12 -10 -16 -22
-4 -14 -8 -18 -12 -10 -3 7 -23 12 -50 12 -26 0 -43 3 -40 6 11 12 -13 44 -33
44 -19 0 -20 8 -20 253 0 138 -3 296 -7 350 -6 93 -7 97 -29 97 -21 0 -23 -5
-26 -57 l-3 -58 -47 -3 c-42 -3 -47 -1 -45 18 1 12 6 19 14 16 19 -8 16 25 -4
40 -11 8 -13 13 -5 14 6 0 12 5 12 11 0 5 -5 7 -12 3 -7 -4 -8 -3 -4 5 5 8 20
10 39 7 30 -6 30 -5 7 5 -14 5 -33 8 -43 5 -13 -3 -21 2 -24 15 -3 10 -14 19
-25 19 -10 0 -16 4 -13 10 3 5 15 10 26 10 10 0 19 7 19 15 0 7 6 18 13 22 9
5 12 25 9 60 -5 63 -22 61 -22 -3 0 -40 -2 -44 -25 -44 -18 0 -25 5 -25 20 0
16 -7 20 -35 20 -19 0 -35 4 -35 8 0 4 16 6 35 4 32 -4 35 -2 35 22 0 19 -6
27 -25 32 -33 8 -36 47 -2 42 18 -2 23 2 25 30 3 29 1 32 -22 32 -14 0 -26 5
-26 11 0 5 -4 8 -9 4 -6 -3 -12 16 -14 42 -2 27 -5 -10 -7 -82 -3 -97 -5 -111
-7 -57 -4 66 -6 74 -28 84 -21 9 -25 18 -25 53 0 26 -6 48 -15 55 -8 7 -15 19
-15 26 0 8 -4 14 -10 14 -5 0 -7 -6 -4 -14 3 -8 1 -17 -5 -21 -7 -3 -11 3 -12
17 -1 23 -1 22 -8 -2 -5 -18 -15 -26 -34 -28 -24 -3 -27 0 -28 30 -2 29 -3 30
-6 6 l-4 -26 -98 -1 c-95 -1 -98 0 -109 24 -6 14 -16 25 -22 25 -5 0 -10 10
-9 23 0 21 1 21 9 2 9 -20 9 -20 9 1 1 25 19 44 43 44 14 0 18 -8 18 -40 0
-38 2 -40 31 -40 17 0 28 4 24 10 -3 6 -12 10 -18 10 -14 0 -40 76 -32 91 4 5
-14 9 -41 9 -44 0 -46 1 -42 25 5 22 2 25 -23 25 -28 0 -29 -2 -29 -45 0 -38
4 -47 23 -55 22 -9 22 -9 -4 -9 -23 -1 -25 3 -28 46 -3 57 -13 76 -22 43 -7
-24 -7 -24 -8 -2 -1 15 -7 22 -21 22 -11 0 -20 7 -20 15 0 9 -9 15 -25 15 -16
0 -25 -6 -25 -15 0 -10 -10 -15 -32 -14 -18 0 -28 3 -21 5 9 4 9 13 2 30 -5
14 -9 61 -9 105 l0 80 -37 -1 c-21 0 -68 2 -105 6 l-68 7 -2 96 c0 53 -2 101
-3 106 -2 6 -3 31 -4 56 l-1 47 -46 4 c-25 2 -47 1 -50 -1z"/>
</g>
</svg>
